<svg xmlns="http://www.w3.org/2000/svg" viewBox="0 0 366.04 115.32"><defs><style>.cls-1{fill:#fff;}.cls-2{fill:#f4c587;}</style></defs><g id="Layer_2" data-name="Layer 2"><g id="Layer_1-2" data-name="Layer 1"><path class="cls-1" d="M67.13,95.14c0-10,.06-19.25,0-28.52,0-2.21.67-3,2.84-2.8a32.62,32.62,0,0,0,5.23,0c2.1-.18,2.75.66,2.73,2.72-.07,10,0,20,0,30,0,5.24-.08,10.48,0,15.71.05,2.11-.77,2.73-2.78,2.76-6.81.09-6.79.13-10.73-5.46-5.94-8.42-11.91-16.81-18.14-25.59-.07,1.07-.16,1.72-.16,2.38,0,8.64-.06,17.29,0,25.93,0,2.13-.71,2.84-2.74,2.72s-3.8-.06-5.71,0c-1.59,0-2.3-.62-2.29-2.25q0-23.31,0-46.64c0-1.57.56-2.21,2.23-2.26,7-.2,7-.26,11.14,5.51Q57,81,65.23,92.61C65.72,93.31,66.25,94,67.13,95.14Z"/><path class="cls-1" d="M184.41,115.12a25.56,25.56,0,0,1-25.85-25.77,25.8,25.8,0,1,1,51.59,0C210.33,103.35,198.58,115.11,184.41,115.12ZM169.28,89.35a14.74,14.74,0,0,0,15.07,15,15.15,15.15,0,0,0,15.12-14.9A15.43,15.43,0,0,0,184.33,74.2,15.06,15.06,0,0,0,169.28,89.35Z"/><path class="cls-1" d="M90.12.15A25.81,25.81,0,0,1,116,26,25.84,25.84,0,0,1,64.3,26,25.72,25.72,0,0,1,90.12.15ZM90,10.84A14.86,14.86,0,0,0,75,26a15.1,15.1,0,1,0,30.2-.15A15,15,0,0,0,90,10.84Z"/><path class="cls-1" d="M228.44,32.39l13.22,19c-4.52,0-8.29.06-12-.07-.61,0-1.34-.78-1.76-1.37-3.43-4.87-6.84-9.74-10.14-14.7a7.83,7.83,0,0,1-1-3.3,30.38,30.38,0,0,1,0-4.05c0-4.67-.38-4.29,4.14-4.37,3.57-.07,6.11-2.35,6.35-5.5.34-4.41-1.16-6.51-5.38-7.14a47.09,47.09,0,0,0-6.4-.37c-3.15-.06-3.16,0-3.16,3v31c0,1.59-.08,3.18,0,4.76s-.63,2.25-2.24,2.18c-2.06-.08-4.13-.1-6.19,0-1.8.09-2.36-.69-2.34-2.39.06-4.84,0-9.68,0-14.52,0-10.4.05-20.79,0-31.19,0-2.21.57-3.15,2.93-3.07,6.1.21,12.21.07,18.31.38,8.1.41,13.46,4.8,15,12.14,1.66,7.92-1,15.59-8.21,18.91A9.53,9.53,0,0,0,228.44,32.39Z"/><path class="cls-1" d="M42.21,25.89c0,7.7,0,15.4,0,23.09,0,1.87-.56,2.59-2.45,2.47a49.22,49.22,0,0,0-5.95,0c-1.76.09-2.4-.62-2.37-2.36.06-4.76-.06-9.52.05-14.28,0-2-.62-2.66-2.59-2.61-4.6.1-9.21.11-13.81,0-2.05,0-2.56.78-2.51,2.67.1,4.52-.1,9,.08,13.57.1,2.49-.8,3.24-3.15,3a38.4,38.4,0,0,0-5.47,0c-1.68.08-2.2-.64-2.2-2.25q.06-23.32,0-46.66C1.87.83,2.59.28,4.15.31c2.06,0,4.13.07,6.19,0C12.08.25,12.7,1,12.67,2.72c-.07,5.63,0,11.27-.05,16.9,0,1.82.46,2.53,2.41,2.47,4.75-.13,9.52-.09,14.28,0,1.67,0,2.22-.55,2.21-2.2-.07-5.63,0-11.27-.06-16.9C31.44,1,32.11.21,34.07.3s3.82.08,5.72,0,2.49.6,2.46,2.5C42.16,10.5,42.21,18.19,42.21,25.89Z"/><path class="cls-1" d="M177.47,17.55c0,5.85.58,11.78-.13,17.55-1.2,9.68-10.43,17-20.11,16.72-10-.25-18.68-7.73-19.53-17.66-.63-7.32-.34-14.73-.43-22.1,0-3,.09-6,0-9C137.15.91,138,.18,140.05.3c1.81.1,3.65.08,5.47,0S148,.87,148,2.78c-.08,9.28-.06,18.56,0,27.84,0,4.81,2.42,8.45,6.41,9.89a9.57,9.57,0,0,0,12.75-9c.08-9.44.09-18.88,0-28.31,0-2.22.71-3,2.85-2.86a49.91,49.91,0,0,0,5.47,0c1.82-.08,2.54.61,2.5,2.5-.09,4.91,0,9.83,0,14.75Z"/><path class="cls-1" d="M304.79,97.85l8.26,5.6c-3.17,7.8-15.66,13.3-25.8,11.54-11.78-2-21.12-12.61-21.48-24.31a26,26,0,0,1,20.05-26.62C296,61.46,309,66.67,313.2,75.31l-8.46,5.62c-4-5.05-9.14-7.75-15.59-6.69a14.85,14.85,0,0,0-9.42,5.59,15.39,15.39,0,0,0,1.89,21.06C287.35,106,297,106.91,304.79,97.85Z"/><path class="cls-1" d="M288.1,15.77c-1.64-1.21-3-2.33-4.45-3.24-2.88-1.77-5.92-3.06-9.43-2.07-1.81.52-3.45,1.63-3.25,3.55a5.76,5.76,0,0,0,2.4,3.65,37.14,37.14,0,0,0,6.06,2.68c2.33,1,4.68,1.95,7,3,5.68,2.63,8.72,7.12,8.51,13.37s-3.59,10.85-9.46,13.35c-9,3.84-20.76.9-27-6.77a2.13,2.13,0,0,1-.23-2c1.87-2.43,3.9-4.75,6.07-7.34.87,1,1.52,1.73,2.21,2.46,3.52,3.73,7.63,5.85,12.94,4.74,2-.42,3.9-1.08,4.34-3.42.48-2.55-1-4.06-3.11-5-3.34-1.47-6.76-2.75-10.08-4.23-4.45-2-8.36-4.62-10-9.56-2.84-8.57,3.66-17.84,13-18.83,7.3-.78,13.55,1.56,19.24,5.9,1.14.87,1.53,1.66.49,2.92C291.62,11.11,290,13.34,288.1,15.77Z"/><path class="cls-1" d="M97.39,63.87c3.77,0,7-.13,10.23.11.72.05,1.63,1.33,2,2.23,3.43,9.2,6.76,18.44,10.12,27.66.29.8.62,1.57,1.15,2.92,1.61-4.38,3-8.22,4.42-12.05,2.28-6.25,4.6-12.49,6.8-18.76a2.76,2.76,0,0,1,3.12-2.17c2.84.12,5.68,0,8.87,0-.39,1.33-.61,2.31-1,3.24-5.73,15.19-11.49,30.36-17.17,45.57a3,3,0,0,1-3.3,2.32c-7.52-.18-5.65.94-8.16-5.57-5.43-14.12-10.7-28.3-16-42.45C98.11,66.09,97.84,65.21,97.39,63.87Z"/><path class="cls-2" d="M347.4,41.67c4.8,0,9,0,13.15,0,3.45,0,3.45,0,3.46,3.4,0,6.21,0,6.21-6.11,6.21-7.93,0-15.86-.07-23.79,0-2.32,0-3-.8-3-3,0-2.47.33-4.49,2.28-6.38,5-4.84,9.82-9.91,14.63-15a31.61,31.61,0,0,0,3.67-4.66c2.29-3.57,1.7-8-1.16-9.82S343,11.78,340.6,15c-2.56,3.48-2.56,3.48-6.13.94-4.26-3-4.31-3.36-1-7.58,7.53-9.67,23.29-8.6,28.39,2.05,3.47,7.26,1.29,13.83-3.55,19.61C355.05,33.89,351.4,37.42,347.4,41.67Z"/><path class="cls-1" d="M243,63.89c.07,1.29.15,2.14.15,3,0,15,0,30,.06,45,0,2.38-.65,3.36-3.08,3.13a26.91,26.91,0,0,0-4.75,0c-2.24.18-3-.62-3-3,.1-13.17,0-26.33.06-39.5,0-6.52-1-4.9,5.15-7C239.21,65,240.89,64.52,243,63.89Z"/><path class="cls-1" d="M10.62,63.89c.07,1.25.14,2.1.14,3q0,22.48,0,45c0,3.12,0,3.12-3.2,3.14-1.67,0-3.34-.08-5,0-2,.13-2.58-.75-2.57-2.67.07-9.2,0-18.4,0-27.59,0-5.08.06-10.16,0-15.23a2.64,2.64,0,0,1,2.23-3C5,65.7,7.64,64.8,10.62,63.89Z"/><path class="cls-1" d="M349.48,63.85c4.68,0,9.36.06,14,0,1.85,0,2.61.59,2.51,2.46S366,70.09,366,72c0,1.33-.43,2.1-1.9,2.1-9.92,0-19.84,0-29.76-.09-.59,0-1.21-1-1.73-1.68-.16-.19,0-.61-.05-.93-.17-7.54-.17-7.54,7.39-7.54Z"/><path class="cls-1" d="M349.21,94.62c-4.76,0-9.52-.06-14.28,0-1.79,0-2.42-.68-2.37-2.36.06-2,0-4,0-6,0-1.39.64-2,2-2q14.64,0,29.28,0c1.53,0,2.15.62,2.11,2.13-.05,2-.07,4,0,6,.06,1.68-.69,2.21-2.29,2.19C358.89,94.58,354.05,94.62,349.21,94.62Z"/><path class="cls-1" d="M349.48,115c-4.75,0-9.5,0-14.25,0-1.91,0-2.79-.63-2.68-2.61.1-1.82,0-3.64,0-5.47,0-1.33.48-2.05,1.94-2.05q14.73,0,29.46,0c1.58,0,2.07.75,2,2.2-.05,1.9-.07,3.81,0,5.7.08,1.69-.73,2.22-2.29,2.21C359,114.92,354.23,115,349.48,115Z"/></g></g></svg>